<?xml version="1.0" encoding="utf-8"?>
<svg width="14px" height="10px" viewBox="0 0 14 10" version="1.1" xmlns:xlink="http://www.w3.org/1999/xlink" xmlns="http://www.w3.org/2000/svg">
  <desc>Created with Lunacy</desc>
  <g id="wstecz">
    <g id="wstecz" transform="matrix(-1 0 0 1 14 0)">
      <path d="M13.4907 5.94183L9.85015 9.7008C9.44432 10.1049 8.801 10.0989 8.40224 9.68734C8.00348 9.27576 7.99558 8.60957 8.38445 8.18796L10.3956 6.11135L1.07316 6.11135C0.480471 6.11135 0 5.61378 0 5C0 4.38622 0.480471 3.88865 1.07316 3.88865L10.3956 3.88865L8.38445 1.81204C7.99558 1.39043 8.00348 0.724243 8.40224 0.312658C8.801 -0.0989268 9.44432 -0.104908 9.85015 0.299195L13.4907 4.05817C13.8071 4.25899 14 4.61569 14 5C14 5.38431 13.8071 5.74101 13.4907 5.94183Z" id="Kształt_978" stroke="none" />
    </g>
  </g>
</svg>