<?xml version="1.0" encoding="utf-8"?>
<svg width="20px" height="20px" viewBox="0 0 20 20" version="1.1" xmlns:xlink="http://www.w3.org/1999/xlink" xmlns="http://www.w3.org/2000/svg">
  <desc>Created with Lunacy</desc>
  <path d="M10 2.01031L10 0.0103128C10.2338 0.0103128 10.4691 0.00774268 10.7048 0.00516854C11.7019 -0.00572125 12.7056 -0.0166832 13.625 0.166563C14.1953 0.279844 14.7773 0.486876 15.25 0.916563C15.7227 1.34625 16 2.0025 16 2.69781C16 3.29156 15.7266 3.84234 15.4063 4.19781C15.0859 4.55328 14.7422 4.77984 14.4063 4.94781C14.2266 5.03766 14.2227 5.01422 14.0625 5.07281L14.9375 9.01031L15 9.01031C17.8008 9.01031 20 11.2095 20 14.0103C20 16.8111 17.8008 19.0103 15 19.0103C12.1992 19.0103 10 16.8111 10 14.0103C10 11.9361 11.2031 10.1822 12.9688 9.41656L12.5625 7.57281C9.5 7.93609 7.21875 10.3931 6.21875 11.6978C7.28125 12.4166 8 13.6353 8 15.0103C8 17.2095 6.19922 19.0103 4 19.0103C1.80078 19.0103 0 17.2095 0 15.0103C0 12.8111 1.80078 11.0103 4 11.0103C4.08594 11.0103 4.16797 11.0377 4.25 11.0416C4.41406 10.7838 4.58594 10.5298 5 10.0103L3.40625 8.13531C3.26563 8.15875 3.10547 8.19781 3 8.19781C2 8.19781 1 7.81109 1 6.01031L7 6.01031C7 6.90875 6.80078 7.11578 6 7.41656C5.90234 7.44781 5.67578 7.52594 5.53125 7.57281L6.375 8.51031C7.75781 7.20953 9.70703 5.89313 12.1563 5.57281L11.9375 4.63531L11.7188 3.63531L12.7188 3.41656C12.7188 3.41656 13.1211 3.35406 13.5 3.16656C13.6875 3.07281 13.8633 2.93609 13.9375 2.85406C14.0023 2.78244 14.0016 2.75846 14.0004 2.71713C14.0002 2.71113 14 2.70475 14 2.69781C14 2.44391 13.9805 2.45172 13.9063 2.38531C13.832 2.31891 13.6172 2.20953 13.25 2.13531C12.6011 2.00485 11.5691 2.00716 10.4614 2.00963C10.3088 2.00997 10.1547 2.01031 10 2.01031ZM15.375 11.0416C16.8867 11.2173 18 12.4361 18 14.0103C18 15.7095 16.6992 17.0103 15 17.0103C13.3008 17.0103 12 15.7095 12 14.0103C12 12.897 12.5742 11.9634 13.4375 11.4478L14 14.0103L14.0313 14.2291L14.0625 14.2291C14.168 14.6666 14.5273 15.0103 15 15.0103C15.5508 15.0103 16 14.5611 16 14.0103C16 13.9283 15.957 13.8658 15.9375 13.7916L15.9688 13.7916L15.375 11.0416ZM4.40625 13.0416C4.27734 13.0142 4.13672 13.0103 4 13.0103C2.89844 13.0103 2 13.9088 2 15.0103C2 16.1119 2.89844 17.0103 4 17.0103C5.10156 17.0103 6 16.1119 6 15.0103C6 14.1275 5.42188 13.3658 4.625 13.1041C4.59375 13.0963 4.5625 13.0845 4.53125 13.0728C4.51758 13.0689 4.50098 13.0709 4.48438 13.0728C4.46777 13.0748 4.45117 13.0767 4.4375 13.0728L4.40625 13.0416Z" id="Shape"  fill-rule="evenodd" stroke="none" />
</svg>