<?xml version="1.0" encoding="utf-8"?>
<svg width="25px" height="25px" viewBox="0 0 25 25" version="1.1" xmlns:xlink="http://www.w3.org/1999/xlink" xmlns="http://www.w3.org/2000/svg">
  <desc>Created with Lunacy</desc>
  <defs>
    <filter filterUnits="userSpaceOnUse" color-interpolation-filters="sRGB" id="filter_1">
      <feFlood flood-opacity="0" result="BackgroundImageFix" />
      <feColorMatrix in="SourceAlpha" type="matrix" values="0 0 0 0 0 0 0 0 0 0 0 0 0 0 0 0 0 0 127 0" />
      <feOffset dx="0" dy="0" />
      <feGaussianBlur stdDeviation="0" />
      <feColorMatrix type="matrix" values="0 0 0 0 0.9372549 0 0 0 0 0.9372549 0 0 0 0 0.9372549 0 0 0 1 0" />
      <feBlend mode="normal" in2="BackgroundImageFix" result="effect0_dropShadow" />
      <feColorMatrix in="SourceAlpha" type="matrix" values="0 0 0 0 0 0 0 0 0 0 0 0 0 0 0 0 0 0 127 0" />
      <feOffset dx="0" dy="0" />
      <feGaussianBlur stdDeviation="1" />
      <feColorMatrix type="matrix" values="0 0 0 0 0 0 0 0 0 0 0 0 0 0 0 0 0 0 0.09803922 0" />
      <feBlend mode="normal" in2="effect0_dropShadow" result="effect1_dropShadow" />
      <feColorMatrix in="SourceAlpha" type="matrix" values="0 0 0 0 0 0 0 0 0 0 0 0 0 0 0 0 0 0 127 0" />
      <feOffset dx="0" dy="0.5" />
      <feGaussianBlur stdDeviation="0" />
      <feColorMatrix type="matrix" values="0 0 0 0 0 0 0 0 0 0 0 0 0 0 0 0 0 0 0.07843138 0" />
      <feBlend mode="normal" in2="effect1_dropShadow" result="effect2_dropShadow" />
      <feBlend mode="normal" in="SourceGraphic" in2="effect2_dropShadow" result="shape" />
    </filter>
  </defs>
  <g id="rower-na-mapie" transform="translate(1 1)">
    <g filter="url(#filter_1)">
      <path d="M11.5 23C17.8513 23 23 17.8513 23 11.5C23 5.14873 17.8513 0 11.5 0C5.14873 0 0 5.14873 0 11.5C0 17.8513 5.14873 23 11.5 23Z" id="tloTram" fill="#FFFFFF" stroke="none" />
    </g>
    <path d="M6.5 1.3067L6.5 0.00670331C6.65194 0.00670331 6.80491 0.00503274 6.95811 0.00335955C7.60623 -0.00371881 8.25865 -0.0108441 8.85625 0.108266C9.22695 0.181898 9.60527 0.316469 9.9125 0.595766C10.2197 0.875063 10.4 1.30163 10.4 1.75358C10.4 2.13952 10.2223 2.49752 10.0141 2.72858C9.80586 2.95963 9.58242 3.1069 9.36406 3.21608C9.24727 3.27448 9.24473 3.25924 9.14063 3.29733L9.70937 5.8567L9.75 5.8567C11.5705 5.8567 13 7.2862 13 9.1067C13 10.9272 11.5705 12.3567 9.75 12.3567C7.92949 12.3567 6.5 10.9272 6.5 9.1067C6.5 7.75846 7.28203 6.61842 8.42969 6.12077L8.16563 4.92233C6.175 5.15846 4.69219 6.75553 4.04219 7.60358C4.73281 8.07077 5.2 8.86295 5.2 9.7567C5.2 11.1862 4.02949 12.3567 2.6 12.3567C1.17051 12.3567 0 11.1862 0 9.7567C0 8.32721 1.17051 7.1567 2.6 7.1567C2.65586 7.1567 2.70918 7.17448 2.7625 7.17702C2.86914 7.00944 2.98086 6.8444 3.25 6.5067L2.21406 5.28795C2.12266 5.30319 2.01855 5.32858 1.95 5.32858C1.3 5.32858 0.65 5.07721 0.65 3.9067L4.55 3.9067C4.55 4.49069 4.42051 4.62526 3.9 4.82077C3.83652 4.84108 3.68926 4.89186 3.59531 4.92233L4.14375 5.5317C5.04258 4.6862 6.30957 3.83053 7.90156 3.62233L7.75938 3.01295L7.61719 2.36295L8.26719 2.22077C8.26719 2.22077 8.52871 2.18014 8.775 2.05827C8.89687 1.99733 9.01113 1.90846 9.05937 1.85514C9.10149 1.80859 9.10103 1.793 9.10024 1.76614C9.10012 1.76223 9.1 1.75809 9.1 1.75358C9.1 1.58854 9.0873 1.59362 9.03906 1.55045C8.99082 1.50729 8.85117 1.4362 8.6125 1.38795C8.19074 1.30316 7.5199 1.30465 6.79993 1.30626C6.70071 1.30648 6.60056 1.3067 6.5 1.3067ZM9.99374 7.177C10.9764 7.29126 11.7 8.08345 11.7 9.10669C11.7 10.2112 10.8545 11.0567 9.74999 11.0567C8.6455 11.0567 7.79999 10.2112 7.79999 9.10669C7.79999 8.38306 8.17323 7.77622 8.73436 7.44106L9.09999 9.10669L9.1203 9.24888L9.14061 9.24888C9.20917 9.53325 9.44276 9.75669 9.74999 9.75669C10.108 9.75669 10.4 9.4647 10.4 9.10669C10.4 9.05337 10.3721 9.01274 10.3594 8.9645L10.3797 8.9645L9.99374 7.177ZM2.86405 8.47704C2.78026 8.45926 2.68886 8.45673 2.59999 8.45673C1.88397 8.45673 1.29999 9.04071 1.29999 9.75673C1.29999 10.4727 1.88397 11.0567 2.59999 11.0567C3.316 11.0567 3.89999 10.4727 3.89999 9.75673C3.89999 9.1829 3.52421 8.68778 3.00624 8.51766C2.98593 8.51259 2.96561 8.50497 2.9453 8.49735C2.93641 8.49481 2.92562 8.49608 2.91483 8.49735C2.90404 8.49862 2.89325 8.49989 2.88436 8.49735L2.86405 8.47704Z" transform="translate(5 5)" id="Shape" fill="#000000" fill-rule="evenodd" stroke="none" />
  </g>
</svg>