<?xml version="1.0" encoding="utf-8"?>
<svg width="15px" height="21px" viewBox="0 0 15 21" version="1.1" xmlns:xlink="http://www.w3.org/1999/xlink" xmlns="http://www.w3.org/2000/svg">
  <desc>Created with Lunacy</desc>
  <g id="icons8-unlock_2">
    <path d="M1.99219 4.48242C2.51587 1.91895 4.79004 0 7.5 0C10.5945 0 13.125 2.53052 13.125 5.625L13.125 8.17383C14.2896 9.49585 15 11.2244 15 13.125C15 17.2668 11.6418 20.625 7.5 20.625C3.35815 20.625 0 17.2668 0 13.125C0 8.98315 3.35815 5.625 7.5 5.625C8.86963 5.625 10.144 6.00952 11.25 6.65039L11.25 5.625C11.25 3.54492 9.58008 1.875 7.5 1.875C5.67993 1.875 4.18579 3.15674 3.83789 4.86328L1.99219 4.48242ZM7.5 7.5C10.6018 7.5 13.125 10.0232 13.125 13.125C13.125 16.2268 10.6018 18.75 7.5 18.75C4.39819 18.75 1.875 16.2268 1.875 13.125C1.875 10.0232 4.39819 7.5 7.5 7.5ZM5.625 13.125C5.625 12.0886 6.46362 11.25 7.5 11.25C8.53638 11.25 9.375 12.0886 9.375 13.125C9.375 14.1614 8.53638 15 7.5 15C6.46362 15 5.625 14.1614 5.625 13.125Z" id="Shape" fill-rule="evenodd" stroke="none" />
  </g>
</svg>